<svg xmlns="http://www.w3.org/2000/svg" viewBox="337 4581.726 63.808 49.926">
  <defs>
    <style>
      .cls-1, .cls-2 {
        fill: #fff;
      }

      .cls-2 {
        stroke: #027874;
      }
    </style>
  </defs>
  <g id="Group_82" data-name="Group 82" transform="translate(-1422 4282)">
    <path id="front-car" class="cls-1" d="M48.9,37.529a2.545,2.545,0,0,0-.677.095l-2.574.709-2.673-6.51a5.832,5.832,0,0,0-4.989-3.345H12.976a5.831,5.831,0,0,0-4.989,3.345l-2.669,6.5-2.541-.7a2.553,2.553,0,0,0-.677-.095A2.086,2.086,0,0,0,0,39.738v1.518a2.713,2.713,0,0,0,2.71,2.71H3L2.57,45.017a20.337,20.337,0,0,0-1.276,6.467V64.418A2.713,2.713,0,0,0,4,67.128h3.54a2.713,2.713,0,0,0,2.71-2.71v-3.23H40.709v3.23a2.713,2.713,0,0,0,2.71,2.71h3.54a2.713,2.713,0,0,0,2.71-2.71V51.484a20.333,20.333,0,0,0-1.276-6.467l-.431-1.051h.327A2.713,2.713,0,0,0,51,41.256V39.738A2.085,2.085,0,0,0,48.9,37.529ZM7.261,42.494,11.3,32.646A3.505,3.505,0,0,1,14.3,30.64H36.669a3.5,3.5,0,0,1,2.992,2.006L43.7,42.494A1.353,1.353,0,0,1,42.358,44.5H8.606A1.353,1.353,0,0,1,7.261,42.494ZM16.286,54.95A1.087,1.087,0,0,1,15.2,56.034H7.522A1.087,1.087,0,0,1,6.438,54.95V51.264A1.087,1.087,0,0,1,7.522,50.18H15.2a1.087,1.087,0,0,1,1.084,1.084Zm28.167,0a1.087,1.087,0,0,1-1.084,1.084H35.69a1.087,1.087,0,0,1-1.084-1.084V51.264A1.087,1.087,0,0,1,35.69,50.18h7.68a1.087,1.087,0,0,1,1.084,1.084Z" transform="translate(1759 282.523)"/>
    <g id="plus-sign-in-a-black-circle" transform="translate(1798 300.225)">
      <path id="Path_136" data-name="Path 136" class="cls-2" d="M22.679,6.053A12.1,12.1,0,0,0,18.255,1.63,11.889,11.889,0,0,0,12.155,0a11.889,11.889,0,0,0-6.1,1.63A12.1,12.1,0,0,0,1.63,6.053,11.889,11.889,0,0,0,0,12.154a11.891,11.891,0,0,0,1.63,6.1,12.1,12.1,0,0,0,4.423,4.423,11.89,11.89,0,0,0,6.1,1.63,11.89,11.89,0,0,0,6.1-1.63,12.1,12.1,0,0,0,4.423-4.423,11.891,11.891,0,0,0,1.63-6.1A11.892,11.892,0,0,0,22.679,6.053Zm-3.434,7.114a1.028,1.028,0,0,1-1.013,1.013H14.18v4.051a1.027,1.027,0,0,1-1.013,1.013H11.141a1.027,1.027,0,0,1-1.013-1.013V14.18H6.077a1.027,1.027,0,0,1-1.013-1.013V11.141a1.027,1.027,0,0,1,1.013-1.013h4.052V6.077a1.027,1.027,0,0,1,1.013-1.013h2.026A1.027,1.027,0,0,1,14.18,6.077v4.051h4.051a1.027,1.027,0,0,1,1.013,1.013Z" transform="translate(0 0)"/>
    </g>
  </g>
</svg>
