<svg xmlns="http://www.w3.org/2000/svg" viewBox="6351.677 1572.012 44.943 44.943">
  <defs>
    <style>
      .cls-1 {
        fill: #fff;
        fill-rule: evenodd;
      }
    </style>
  </defs>
  <path id="Path_123" data-name="Path 123" class="cls-1" d="M22.472,0A22.472,22.472,0,1,1,0,22.472,22.472,22.472,0,0,1,22.472,0ZM12.064,29.3,18.89,22.47l-6.826-6.824a2.541,2.541,0,0,1,0-3.581h0a2.541,2.541,0,0,1,3.581,0l6.826,6.826L29.3,12.064a2.541,2.541,0,0,1,3.581,0h0a2.541,2.541,0,0,1,0,3.581l-6.826,6.826L32.879,29.3a2.541,2.541,0,0,1,0,3.581h0a2.541,2.541,0,0,1-3.581,0l-6.826-6.826-6.826,6.826a2.541,2.541,0,0,1-3.581,0h0a2.541,2.541,0,0,1,0-3.581Z" transform="translate(6351.677 1572.012)"/>
</svg>
