<svg xmlns="http://www.w3.org/2000/svg" viewBox="8606.646 2039.673 56.754 53.328">
  <defs>
    <style>
      .cls-1 {
        fill: #fff;
      }

      .cls-2 {
        fill: #98ff23;
      }
    </style>
  </defs>
  <g id="Group_409" data-name="Group 409" transform="translate(2281 2110)">
    <g id="delivery-packages-on-a-trolley" transform="translate(6325.646 -68.008)">
      <path id="Path_186" data-name="Path 186" class="cls-1" d="M37.065,8.8A5.51,5.51,0,0,1,47.529,5.345L58.356,38.159a7.235,7.235,0,0,0-3.153-.119L44.721,6.272a2.553,2.553,0,0,0-4.848,1.6,1.479,1.479,0,0,1-2.808.926ZM79.721,34.539,61.983,40.392a7.245,7.245,0,0,1,1.445,2.524c.011.034.018.069.028.1l17.191-5.672a1.479,1.479,0,1,0-.927-2.808Zm-17.7,8.841a5.808,5.808,0,1,1-7.335-3.7A5.808,5.808,0,0,1,62.024,43.38Zm-2.758.91a2.9,2.9,0,1,0-1.848,3.668A2.9,2.9,0,0,0,59.266,44.29ZM75.238,12.281l6.022,18.253a.739.739,0,0,1-.47.934L61.835,37.722a.739.739,0,0,1-.934-.47L54.879,19a.739.739,0,0,1,.47-.934L74.3,11.811A.739.739,0,0,1,75.238,12.281Zm-2.507,10.6-6.454-3.551L63.2,26.028l2.034.936,1.328-2.9,2.4,7.271,2.3-.757-2.4-7.269,2.79,1.536ZM67.1,11.995,63.249.325a.473.473,0,0,0-.6-.3l-3.3,1.089-.016.03-.028-.015L57.565,1.7,59,6.05,57.034,6.7,55.6,2.351l-1.742.575-.013.029-.031-.014-3.28,1.082a.473.473,0,0,0-.3.6l3.85,11.67a.473.473,0,0,0,.6.3l12.119-4A.473.473,0,0,0,67.1,11.995Z" transform="translate(-36.787 -0.001)"/>
    </g>
    <g id="plus-sign-in-a-black-circle" transform="translate(6358.83 -70.327)">
      <path id="Path_119" data-name="Path 119" class="cls-2" d="M21.99,5.869A11.736,11.736,0,0,0,17.7,1.581,11.528,11.528,0,0,0,11.785,0,11.528,11.528,0,0,0,5.87,1.581,11.733,11.733,0,0,0,1.581,5.869,11.527,11.527,0,0,0,0,11.785,11.53,11.53,0,0,0,1.581,17.7,11.736,11.736,0,0,0,5.87,21.99a11.529,11.529,0,0,0,5.916,1.581A11.529,11.529,0,0,0,17.7,21.99,11.733,11.733,0,0,0,21.99,17.7a11.53,11.53,0,0,0,1.58-5.916A11.53,11.53,0,0,0,21.99,5.869Zm-3.33,6.9a1,1,0,0,1-.982.982H13.749v3.928a1,1,0,0,1-.982.982H10.8a1,1,0,0,1-.982-.982V13.749H5.893a1,1,0,0,1-.982-.982V10.8a1,1,0,0,1,.982-.982H9.821V5.892A1,1,0,0,1,10.8,4.91h1.964a1,1,0,0,1,.982.982V9.821h3.928a1,1,0,0,1,.982.982Z" transform="translate(0 0)"/>
    </g>
  </g>
</svg>
