<?xml version="1.0" encoding="UTF-8"?>
<!DOCTYPE svg PUBLIC "-//W3C//DTD SVG 1.1//EN" "http://www.w3.org/Graphics/SVG/1.1/DTD/svg11.dtd">
<!-- Creator: CorelDRAW 2017 -->
<svg xmlns="http://www.w3.org/2000/svg" xml:space="preserve" width="15.1066mm" height="15.1066mm" version="1.1" style="shape-rendering:geometricPrecision; text-rendering:geometricPrecision; image-rendering:optimizeQuality; fill-rule:evenodd; clip-rule:evenodd"
viewBox="0 0 217.85 217.85"
 xmlns:xlink="http://www.w3.org/1999/xlink">
 <defs>
  <style type="text/css">
   <![CDATA[
    .fil0 {fill:#BAD405}
   ]]>
  </style>
 </defs>
 <g id="Layer_x0020_1">
  <metadata id="CorelCorpID_0Corel-Layer"/>
  <path class="fil0" d="M108.93 0c60.16,0 108.93,48.77 108.93,108.93 0,60.16 -48.77,108.93 -108.93,108.93 -60.16,0 -108.93,-48.77 -108.93,-108.93 0,-60.16 48.77,-108.93 108.93,-108.93zm51.55 56.54c5.63,-5.63 14.76,-5.63 20.39,0 5.63,5.63 5.63,14.76 0,20.39l-84.38 84.38c-5.63,5.63 -14.76,5.63 -20.39,0l-39.12 -39.12c-5.63,-5.63 -5.63,-14.76 0,-20.39 5.63,-5.63 14.76,-5.63 20.39,0l28.92 28.92 74.19 -74.18z"/>
 </g>
</svg>
