<?xml version="1.0" encoding="UTF-8"?>
<!DOCTYPE svg PUBLIC "-//W3C//DTD SVG 1.1//EN" "http://www.w3.org/Graphics/SVG/1.1/DTD/svg11.dtd">
<!-- Creator: CorelDRAW 2017 -->
<svg xmlns="http://www.w3.org/2000/svg" xml:space="preserve" width="15.1066mm" height="15.1066mm" version="1.1" style="shape-rendering:geometricPrecision; text-rendering:geometricPrecision; image-rendering:optimizeQuality; fill-rule:evenodd; clip-rule:evenodd"
viewBox="0 0 217.85 217.85"
 xmlns:xlink="http://www.w3.org/1999/xlink">
 <defs>
  <style type="text/css">
   <![CDATA[
    .fil0 {fill:#E31E24}
   ]]>
  </style>
 </defs>
 <g id="Layer_x0020_1">
  <metadata id="CorelCorpID_0Corel-Layer"/>
  <path class="fil0" d="M108.93 0c60.16,0 108.93,48.77 108.93,108.93 0,60.16 -48.77,108.93 -108.93,108.93 -60.16,0 -108.93,-48.77 -108.93,-108.93 0,-60.16 48.77,-108.93 108.93,-108.93zm-50.45 142.01l33.09 -33.09 -33.09 -33.08c-4.77,-4.77 -4.77,-12.58 0,-17.36l0 0c4.77,-4.77 12.58,-4.77 17.36,0l33.09 33.09 33.09 -33.09c4.77,-4.77 12.58,-4.77 17.36,0l0 0c4.77,4.77 4.77,12.58 0,17.36l-33.09 33.09 33.09 33.09c4.77,4.77 4.77,12.58 0,17.36l0 0c-4.77,4.77 -12.58,4.77 -17.36,0l-33.09 -33.09 -33.09 33.09c-4.77,4.77 -12.58,4.77 -17.36,0l0 0c-4.77,-4.77 -4.77,-12.58 0,-17.36z"/>
 </g>
</svg>
