<?xml version="1.0" encoding="UTF-8"?>
<!DOCTYPE svg PUBLIC "-//W3C//DTD SVG 1.1//EN" "http://www.w3.org/Graphics/SVG/1.1/DTD/svg11.dtd">
<!-- Creator: CorelDRAW 2017 -->
<svg xmlns="http://www.w3.org/2000/svg" xml:space="preserve" width="15.1066mm" height="15.1066mm" version="1.1" style="shape-rendering:geometricPrecision; text-rendering:geometricPrecision; image-rendering:optimizeQuality; fill-rule:evenodd; clip-rule:evenodd"
viewBox="0 0 217.85 217.85"
 xmlns:xlink="http://www.w3.org/1999/xlink">
 <defs>
  <style type="text/css">
   <![CDATA[
    .fil0 {fill:#00A0E3}
   ]]>
  </style>
 </defs>
 <g id="Layer_x0020_1">
  <metadata id="CorelCorpID_0Corel-Layer"/>
  <path class="fil0" d="M108.93 17.53c50.48,0 91.39,40.92 91.39,91.39 0,50.48 -40.92,91.39 -91.39,91.39 -50.48,0 -91.39,-40.92 -91.39,-91.39 0,-50.48 40.92,-91.39 91.39,-91.39zm0 -17.53c60.16,0 108.93,48.77 108.93,108.93 0,60.16 -48.77,108.93 -108.93,108.93 -60.16,0 -108.93,-48.77 -108.93,-108.93 0,-60.16 48.77,-108.93 108.93,-108.93zm-4.92 108.93l-53.51 33.9c11.61,18.33 31.81,29.45 53.51,29.45 34.99,0 63.35,-28.36 63.35,-63.35 0,-34.99 -28.36,-63.35 -63.35,-63.35l0 63.35z"/>
 </g>
</svg>
