<svg xmlns="http://www.w3.org/2000/svg" viewBox="784.758 4221.823 45.84 65.536">
  <defs>
    <style>
      .cls-1 {
        fill: #1b427a;
      }
    </style>
  </defs>
  <g id="volante" transform="translate(775.758 4225.823)">
    <path id="Path_97" data-name="Path 97" class="cls-1" d="M6.091,9.016A1.188,1.188,0,1,1,4.627,7.145a29.727,29.727,0,0,1,34.3-1.623l-.874-4.085A1.191,1.191,0,0,1,40.386.944L41.9,8.026a1.189,1.189,0,0,1-.918,1.41l-7.1,1.511a1.189,1.189,0,1,1-.495-2.326l4.482-.955A27.379,27.379,0,0,0,6.091,9.016Zm-2.926,25.3a19.87,19.87,0,1,1,21.6,17.834A19.791,19.791,0,0,1,3.165,34.321Zm-2.93.9c1.956,12.9,13.106,21.4,25.431,19.861,11.508-1.438,21.641-11.824,20.005-25.353C44.279,18.21,33.715,8.057,20.223,9.74,7.375,11.343-1.564,23.35.236,35.219Zm20.977-9.765A7.184,7.184,0,0,1,24.747,39.38C15.631,41.7,11.8,27.938,21.213,25.454ZM4.867,32.522c.928.485,4.844,1.272,6.269,1.783,7.906,2.835,6.307,8.106,8.4,15.891a22.257,22.257,0,0,0,6.819,0c1.122-4.175,1.192-9.508,3.48-12.717a10.574,10.574,0,0,1,4.919-3.175c1.426-.511,5.341-1.3,6.27-1.783a11.179,11.179,0,0,0-.8-5.247,75.072,75.072,0,0,0-8.29-2.026c-7.163-1.567-11.024-1.535-18.161.041a74.1,74.1,0,0,0-8.1,1.985,11.189,11.189,0,0,0-.8,5.247Zm17.141-5.44c-7.368,1.5-4.914,12.056,2.026,10.671A5.5,5.5,0,0,0,28.3,31.324,5.437,5.437,0,0,0,22.007,27.082ZM8.04,64.1a1.191,1.191,0,0,1-2.331.494L4.194,57.513a1.189,1.189,0,0,1,.918-1.41l7.1-1.511a1.189,1.189,0,1,1,.495,2.326l-4.482.955A27.379,27.379,0,0,0,40,56.522a1.188,1.188,0,1,1,1.464,1.871,29.727,29.727,0,0,1-34.3,1.623L8.04,64.1Z" transform="translate(8.995 -4.002)"/>
  </g>
</svg>
