<svg xmlns="http://www.w3.org/2000/svg" viewBox="1306.771 4231.442 35.484 39.707">
  <defs>
    <style>
      .cls-1 {
        fill: #1b427a;
      }
    </style>
  </defs>
  <g id="Group_51" data-name="Group 51" transform="translate(1306.772 4231.442)">
    <path id="Path_47" data-name="Path 47" class="cls-1" d="M24456.9,9173.144h-1.2v-1.309a2.918,2.918,0,1,0-5.834,0v1.3h-2.988v-1.3a2.918,2.918,0,1,0-5.834,0v1.3h-2.99v-1.3a2.914,2.914,0,1,0-5.826,0v1.3h-1.535a4.643,4.643,0,0,0-4.639,4.633v26.145a4.639,4.639,0,0,0,4.639,4.63h26.207a4.639,4.639,0,0,0,4.639-4.63v-26.145A4.639,4.639,0,0,0,24456.9,9173.144Zm-5.391-1.309a1.279,1.279,0,1,1,2.553,0v5.336a1.279,1.279,0,1,1-2.553,0Zm-8.822,0a1.279,1.279,0,1,1,2.553,0v5.336a1.279,1.279,0,1,1-2.553,0Zm-8.824,0a1.28,1.28,0,1,1,2.555,0v5.336a1.28,1.28,0,1,1-2.555,0Zm24.945,32.081a1.913,1.913,0,0,1-1.908,1.911H24430.7a1.911,1.911,0,0,1-1.908-1.911v-23.963h30.023Z" transform="translate(-24426.059 -9168.839)"/>
    <path id="Path_48" data-name="Path 48" class="cls-1" d="M24560.2,9586.046h5.02v-4.456h-5.02Z" transform="translate(-24555.01 -9565.657)"/>
    <path id="Path_49" data-name="Path 49" class="cls-1" d="M24733.3,9586.046h5.016v-4.456h-5.016Z" transform="translate(-24721.416 -9565.657)"/>
    <path id="Path_50" data-name="Path 50" class="cls-1" d="M24906.5,9586.046h5.014v-4.456h-5.014Z" transform="translate(-24887.916 -9565.657)"/>
    <path id="Path_51" data-name="Path 51" class="cls-1" d="M25079.5,9586.046h5.018v-4.456h-5.018Z" transform="translate(-25054.223 -9565.657)"/>
    <path id="Path_52" data-name="Path 52" class="cls-1" d="M24560.2,9740.092h5.02v-4.452h-5.02Z" transform="translate(-24555.01 -9713.76)"/>
    <path id="Path_53" data-name="Path 53" class="cls-1" d="M24733.3,9740.092h5.016v-4.452h-5.016Z" transform="translate(-24721.416 -9713.76)"/>
    <path id="Path_54" data-name="Path 54" class="cls-1" d="M24906.5,9740.092h5.014v-4.452h-5.014Z" transform="translate(-24887.916 -9713.76)"/>
    <path id="Path_55" data-name="Path 55" class="cls-1" d="M25079.5,9740.092h5.018v-4.452h-5.018Z" transform="translate(-25054.223 -9713.76)"/>
    <path id="Path_56" data-name="Path 56" class="cls-1" d="M24560.2,9894.146h5.02V9889.7h-5.02Z" transform="translate(-24555.01 -9861.873)"/>
    <path id="Path_57" data-name="Path 57" class="cls-1" d="M24733.3,9894.146h5.016V9889.7h-5.016Z" transform="translate(-24721.416 -9861.873)"/>
    <path id="Path_58" data-name="Path 58" class="cls-1" d="M24906.5,9894.146h5.014V9889.7h-5.014Z" transform="translate(-24887.916 -9861.873)"/>
    <path id="Path_59" data-name="Path 59" class="cls-1" d="M25079.5,9894.146h5.018V9889.7h-5.018Z" transform="translate(-25054.223 -9861.873)"/>
    <path id="Path_108" data-name="Path 108" class="cls-1" d="M24456.9,9173.144h-1.2v-1.309a2.918,2.918,0,1,0-5.834,0v1.3h-2.988v-1.3a2.918,2.918,0,1,0-5.834,0v1.3h-2.99v-1.3a2.914,2.914,0,1,0-5.826,0v1.3h-1.535a4.643,4.643,0,0,0-4.639,4.633v26.145a4.639,4.639,0,0,0,4.639,4.63h26.207a4.639,4.639,0,0,0,4.639-4.63v-26.145A4.639,4.639,0,0,0,24456.9,9173.144Zm-5.391-1.309a1.279,1.279,0,1,1,2.553,0v5.336a1.279,1.279,0,1,1-2.553,0Zm-8.822,0a1.279,1.279,0,1,1,2.553,0v5.336a1.279,1.279,0,1,1-2.553,0Zm-8.824,0a1.28,1.28,0,1,1,2.555,0v5.336a1.28,1.28,0,1,1-2.555,0Zm24.945,32.081a1.913,1.913,0,0,1-1.908,1.911H24430.7a1.911,1.911,0,0,1-1.908-1.911v-23.963h30.023Z" transform="translate(-24426.059 -9168.839)"/>
  </g>
</svg>
