<svg xmlns="http://www.w3.org/2000/svg" viewBox="6760.899 1978.257 52.674 37.287">
  <defs>
    <style>
      .cls-1 {
        fill: #fff;
      }

      .cls-2 {
        fill: #98ff23;
      }
    </style>
  </defs>
  <g id="Group_353" data-name="Group 353" transform="translate(6760.899 1978.257)">
    <path id="front-car" class="cls-1" d="M36.226,35.183a1.885,1.885,0,0,0-.5.07l-1.907.525-1.98-4.823a4.32,4.32,0,0,0-3.7-2.478H9.613a4.32,4.32,0,0,0-3.7,2.478L3.939,35.771l-1.883-.519a1.891,1.891,0,0,0-.5-.07A1.545,1.545,0,0,0,0,36.819v1.124a2.01,2.01,0,0,0,2.008,2.008h.216L1.9,40.73a15.066,15.066,0,0,0-.945,4.791V55.1A2.01,2.01,0,0,0,2.967,57.11H5.589A2.01,2.01,0,0,0,7.6,55.1V52.709H30.158V55.1a2.01,2.01,0,0,0,2.008,2.008h2.622A2.01,2.01,0,0,0,36.8,55.1V45.521a15.063,15.063,0,0,0-.945-4.791l-.319-.778h.242a2.01,2.01,0,0,0,2.008-2.008V36.819A1.545,1.545,0,0,0,36.226,35.183ZM5.379,38.861l2.995-7.3A2.6,2.6,0,0,1,10.59,30.08H27.164a2.6,2.6,0,0,1,2.216,1.486l2.995,7.3a1,1,0,0,1-1,1.486h-25A1,1,0,0,1,5.379,38.861Zm6.686,9.227a.805.805,0,0,1-.8.8H5.572a.805.805,0,0,1-.8-.8v-2.73a.805.805,0,0,1,.8-.8h5.689a.805.805,0,0,1,.8.8Zm20.866,0a.805.805,0,0,1-.8.8H26.439a.805.805,0,0,1-.8-.8v-2.73a.805.805,0,0,1,.8-.8h5.689a.805.805,0,0,1,.8.8Z" transform="translate(0 -19.823)"/>
    <g id="plus-sign-in-a-black-circle" transform="translate(29.675 0)">
      <path id="Path_119" data-name="Path 119" class="cls-2" d="M21.457,5.727a11.451,11.451,0,0,0-4.185-4.185A11.248,11.248,0,0,0,11.5,0,11.248,11.248,0,0,0,5.727,1.542,11.448,11.448,0,0,0,1.542,5.727,11.248,11.248,0,0,0,0,11.5a11.251,11.251,0,0,0,1.542,5.772,11.451,11.451,0,0,0,4.185,4.185A11.249,11.249,0,0,0,11.5,23a11.249,11.249,0,0,0,5.772-1.542,11.448,11.448,0,0,0,4.185-4.185A11.25,11.25,0,0,0,23,11.5,11.251,11.251,0,0,0,21.457,5.727Zm-3.249,6.73a.972.972,0,0,1-.958.958H13.416v3.833a.972.972,0,0,1-.958.958H10.541a.971.971,0,0,1-.958-.958V13.416H5.75a.972.972,0,0,1-.958-.958V10.541a.972.972,0,0,1,.958-.958H9.583V5.749a.972.972,0,0,1,.958-.958h1.917a.972.972,0,0,1,.958.958V9.583h3.833a.972.972,0,0,1,.958.958Z" transform="translate(0 0)"/>
    </g>
  </g>
</svg>
