<svg xmlns="http://www.w3.org/2000/svg" viewBox="6761.221 2117.493 51.179 45.046">
  <defs>
    <style>
      .cls-1 {
        fill: #fff;
      }

      .cls-2 {
        fill: #98ff23;
      }
    </style>
  </defs>
  <g id="Group_355" data-name="Group 355" transform="translate(6761.221 2117.493)">
    <g id="delivery-packages-on-a-trolley" transform="translate(0 4.741)">
      <path id="Path_186" data-name="Path 186" class="cls-1" d="M37.006,6.952a4.354,4.354,0,1,1,8.269-2.728L53.83,30.152a5.717,5.717,0,0,0-2.491-.094l-8.282-25.1A2.017,2.017,0,1,0,39.225,6.22a1.168,1.168,0,1,1-2.219.732Zm33.706,20.34L56.7,31.917a5.725,5.725,0,0,1,1.142,1.995c.009.027.014.054.022.082l13.584-4.482a1.168,1.168,0,1,0-.732-2.219ZM56.728,34.278a4.589,4.589,0,1,1-5.8-2.92A4.589,4.589,0,0,1,56.728,34.278ZM54.549,35a2.295,2.295,0,1,0-1.46,2.9A2.295,2.295,0,0,0,54.549,35ZM67.17,9.7l4.759,14.423a.584.584,0,0,1-.372.738L56.579,29.807a.584.584,0,0,1-.738-.372L51.083,15.012a.584.584,0,0,1,.372-.738L66.432,9.333A.584.584,0,0,1,67.17,9.7Zm-1.981,8.378-5.1-2.806-2.428,5.29,1.607.74,1.05-2.288,1.9,5.745,1.814-.6-1.9-5.744,2.2,1.214Zm-4.45-8.6L57.7.257A.373.373,0,0,0,57.225.02L54.616.88,54.6.9,54.581.892,53.2,1.346l1.133,3.435-1.552.512L51.652,1.858l-1.377.454-.01.023-.024-.011-2.592.855a.373.373,0,0,0-.238.472l3.042,9.221a.373.373,0,0,0,.472.238L60.5,9.95A.374.374,0,0,0,60.739,9.478Z" transform="translate(-36.787 -0.001)"/>
    </g>
    <g id="plus-sign-in-a-black-circle" transform="translate(28.18)">
      <path id="Path_119" data-name="Path 119" class="cls-2" d="M21.457,5.727a11.451,11.451,0,0,0-4.185-4.185A11.248,11.248,0,0,0,11.5,0,11.248,11.248,0,0,0,5.727,1.542,11.448,11.448,0,0,0,1.542,5.727,11.248,11.248,0,0,0,0,11.5a11.251,11.251,0,0,0,1.542,5.772,11.451,11.451,0,0,0,4.185,4.185A11.249,11.249,0,0,0,11.5,23a11.249,11.249,0,0,0,5.772-1.542,11.448,11.448,0,0,0,4.185-4.185A11.25,11.25,0,0,0,23,11.5,11.251,11.251,0,0,0,21.457,5.727Zm-3.249,6.73a.972.972,0,0,1-.958.958H13.416v3.833a.972.972,0,0,1-.958.958H10.541a.971.971,0,0,1-.958-.958V13.416H5.75a.972.972,0,0,1-.958-.958V10.541a.972.972,0,0,1,.958-.958H9.583V5.749a.972.972,0,0,1,.958-.958h1.917a.972.972,0,0,1,.958.958V9.583h3.833a.972.972,0,0,1,.958.958Z" transform="translate(0 0)"/>
    </g>
  </g>
</svg>
