<svg xmlns="http://www.w3.org/2000/svg" viewBox="6517.119 1993.571 75.045 75.045">
  <defs>
    <style>
      .cls-1 {
        fill: #1b427a;
      }

      .cls-2 {
        fill: #fff;
      }
    </style>
  </defs>
  <g id="Group_410" data-name="Group 410" transform="translate(-184 1451)">
    <g id="Group_142" data-name="Group 142" transform="translate(-113.881 -321.429)">
      <ellipse id="Ellipse_23" data-name="Ellipse 23" class="cls-1" cx="37.523" cy="37.522" rx="37.523" ry="37.522" transform="translate(6815 864)"/>
    </g>
    <g id="delivery-packages-on-a-trolley" transform="translate(6678.563 555.735)">
      <path id="Path_186" data-name="Path 186" class="cls-2" d="M37.055,8.5A5.321,5.321,0,1,1,47.162,5.163L57.619,36.855a6.987,6.987,0,0,0-3.045-.115L44.45,6.058A2.465,2.465,0,1,0,39.767,7.6a1.428,1.428,0,0,1-2.712.895Zm41.2,24.861L61.121,39.012a7,7,0,0,1,1.4,2.438c.011.033.017.066.027.1l16.6-5.478a1.428,1.428,0,1,0-.895-2.712ZM61.161,41.9a5.609,5.609,0,1,1-7.085-3.569A5.609,5.609,0,0,1,61.161,41.9Zm-2.663.879a2.8,2.8,0,1,0-1.785,3.542A2.8,2.8,0,0,0,58.5,42.776ZM73.924,11.862l5.817,17.629a.714.714,0,0,1-.454.9l-18.307,6.04a.714.714,0,0,1-.9-.454L54.261,18.349a.714.714,0,0,1,.454-.9l18.307-6.04A.714.714,0,0,1,73.924,11.862ZM71.5,22.1l-6.234-3.43L62.3,25.138l1.965.9,1.283-2.8,2.317,7.022,2.217-.732-2.317-7.021L70.462,24ZM66.063,11.585,62.344.314a.456.456,0,0,0-.577-.29L58.579,1.076l-.016.029-.027-.015-1.682.555,1.385,4.2-1.9.626-1.385-4.2-1.683.555-.013.028-.03-.014L50.064,3.886a.456.456,0,0,0-.29.577l3.719,11.271a.456.456,0,0,0,.577.29l11.7-3.862A.457.457,0,0,0,66.063,11.585Z" transform="translate(0 0)"/>
    </g>
  </g>
</svg>
