<svg xmlns="http://www.w3.org/2000/svg" viewBox="7344 1724.522 42.314 33.247">
  <defs>
    <style>
      .cls-1 {
        fill: #1b427a;
      }
    </style>
  </defs>
  <g id="black-back-closed-envelope-shape" transform="translate(7344 1665.509)">
    <g id="Group_151" data-name="Group 151" transform="translate(0 59.013)">
      <path id="Path_179" data-name="Path 179" class="cls-1" d="M54.18,336.451a3.617,3.617,0,0,0,2.476-.934L44.668,323.528c-.288.206-.566.406-.83.6q-1.346.991-2.184,1.546a13.46,13.46,0,0,1-2.231,1.134,6.8,6.8,0,0,1-2.6.578h-.047a6.8,6.8,0,0,1-2.6-.578,13.417,13.417,0,0,1-2.231-1.134q-.839-.554-2.184-1.546c-.25-.183-.528-.385-.827-.6L16.946,335.517a3.618,3.618,0,0,0,2.476.934Z" transform="translate(-15.644 -303.204)"/>
      <path id="Path_180" data-name="Path 180" class="cls-1" d="M2.385,200.61A12.519,12.519,0,0,1,0,198.555v18.24l10.566-10.566Q7.4,204.015,2.385,200.61Z" transform="translate(0 -187.835)"/>
      <path id="Path_181" data-name="Path 181" class="cls-1" d="M421.51,200.61q-4.824,3.265-8.2,5.623L423.871,216.8v-18.24A13.032,13.032,0,0,1,421.51,200.61Z" transform="translate(-381.557 -187.835)"/>
      <path id="Path_182" data-name="Path 182" class="cls-1" d="M38.542,59.013H3.784a3.372,3.372,0,0,0-2.8,1.228,4.764,4.764,0,0,0-.98,3.07,5.518,5.518,0,0,0,1.3,3.223,11.715,11.715,0,0,0,2.763,2.727q.8.567,4.841,3.365c1.453,1.007,2.717,1.885,3.8,2.642.926.645,1.724,1.2,2.383,1.667l.353.251.651.469q.767.555,1.275.9t1.228.767a7.164,7.164,0,0,0,1.358.638,3.757,3.757,0,0,0,1.181.212h.047a3.758,3.758,0,0,0,1.181-.212,7.148,7.148,0,0,0,1.358-.638q.72-.425,1.228-.767t1.275-.9l.651-.469.353-.252,2.39-1.661q2.936-2.04,8.661-6.014a11.231,11.231,0,0,0,2.881-2.9,6.247,6.247,0,0,0,1.156-3.565,3.809,3.809,0,0,0-3.778-3.778Z" transform="translate(-0.006 -59.013)"/>
    </g>
  </g>
</svg>
