<svg xmlns="http://www.w3.org/2000/svg" viewBox="6760.899 2050.339 52.674 32.643">
  <defs>
    <style>
      .cls-1 {
        fill: #fff;
      }

      .cls-2 {
        fill: #e31e24;
        fill-rule: evenodd;
      }
    </style>
  </defs>
  <g id="Group_354" data-name="Group 354" transform="translate(6760.899 2050.339)">
    <path id="front-car" class="cls-1" d="M36.226,35.183a1.885,1.885,0,0,0-.5.07l-1.907.525-1.98-4.823a4.32,4.32,0,0,0-3.7-2.478H9.613a4.32,4.32,0,0,0-3.7,2.478L3.939,35.771l-1.883-.519a1.891,1.891,0,0,0-.5-.07A1.545,1.545,0,0,0,0,36.819v1.124a2.01,2.01,0,0,0,2.008,2.008h.216L1.9,40.73a15.066,15.066,0,0,0-.945,4.791V55.1A2.01,2.01,0,0,0,2.967,57.11H5.589A2.01,2.01,0,0,0,7.6,55.1V52.709H30.158V55.1a2.01,2.01,0,0,0,2.008,2.008h2.622A2.01,2.01,0,0,0,36.8,55.1V45.521a15.063,15.063,0,0,0-.945-4.791l-.319-.778h.242a2.01,2.01,0,0,0,2.008-2.008V36.819A1.545,1.545,0,0,0,36.226,35.183ZM5.379,38.861l2.995-7.3A2.6,2.6,0,0,1,10.59,30.08H27.164a2.6,2.6,0,0,1,2.216,1.486l2.995,7.3a1,1,0,0,1-1,1.486h-25A1,1,0,0,1,5.379,38.861Zm6.686,9.227a.805.805,0,0,1-.8.8H5.572a.805.805,0,0,1-.8-.8v-2.73a.805.805,0,0,1,.8-.8h5.689a.805.805,0,0,1,.8.8Zm20.866,0a.805.805,0,0,1-.8.8H26.439a.805.805,0,0,1-.8-.8v-2.73a.805.805,0,0,1,.8-.8h5.689a.805.805,0,0,1,.8.8Z" transform="translate(0 -24.467)"/>
    <path id="Path_120" data-name="Path 120" class="cls-2" d="M11.5,0A11.5,11.5,0,1,1,0,11.5,11.5,11.5,0,0,1,11.5,0ZM6.173,14.991,9.667,11.5,6.173,8.006a1.3,1.3,0,0,1,0-1.833h0a1.3,1.3,0,0,1,1.833,0L11.5,9.667l3.493-3.493a1.3,1.3,0,0,1,1.833,0h0a1.3,1.3,0,0,1,0,1.833L13.332,11.5l3.493,3.493a1.3,1.3,0,0,1,0,1.833h0a1.3,1.3,0,0,1-1.833,0L11.5,13.332,8.006,16.825a1.3,1.3,0,0,1-1.833,0h0a1.3,1.3,0,0,1,0-1.833Z" transform="translate(29.675 0)"/>
  </g>
</svg>
