<svg xmlns="http://www.w3.org/2000/svg" viewBox="7409 1719.854 39.706 39.706">
  <defs>
    <style>
      .cls-1 {
        fill: #1b427a;
      }

      .cls-2 {
        fill: #76aaf1;
      }
    </style>
  </defs>
  <g id="telephone" transform="translate(7408.994 1719.854)">
    <g id="Group_152" data-name="Group 152" transform="translate(0.006)">
      <path id="Path_183" data-name="Path 183" class="cls-1" d="M30.193,68.592a2.782,2.782,0,0,0-4.206,0c-.983.975-1.966,1.95-2.933,2.941a.579.579,0,0,1-.81.149c-.636-.347-1.314-.628-1.925-1.008a30.5,30.5,0,0,1-7.354-6.693,17.422,17.422,0,0,1-2.636-4.222.6.6,0,0,1,.149-.777c.983-.95,1.942-1.925,2.908-2.9a2.793,2.793,0,0,0-.008-4.3c-.768-.777-1.537-1.537-2.305-2.313-.793-.793-1.578-1.595-2.38-2.38a2.8,2.8,0,0,0-4.206.008c-.991.975-1.942,1.975-2.95,2.933a4.788,4.788,0,0,0-1.5,3.231,13.688,13.688,0,0,0,1.058,5.891A35.8,35.8,0,0,0,7.446,69.732,39.319,39.319,0,0,0,20.468,79.92a18.832,18.832,0,0,0,7.213,2.1,5.286,5.286,0,0,0,4.536-1.727c.843-.942,1.793-1.8,2.685-2.7a2.811,2.811,0,0,0,.017-4.28Q32.564,70.942,30.193,68.592Z" transform="translate(-0.006 -42.325)"/>
      <path id="Path_184" data-name="Path 184" class="cls-2" d="M246.811,107.749l3.049-.521A13.685,13.685,0,0,0,238.284,96l-.43,3.065a10.577,10.577,0,0,1,8.957,8.684Z" transform="translate(-218.202 -88.068)"/>
      <path id="Path_185" data-name="Path 185" class="cls-2" d="M256.073,6.428A22.481,22.481,0,0,0,243.184,0l-.43,3.065a19.616,19.616,0,0,1,16.6,16.087l3.049-.521A22.646,22.646,0,0,0,256.073,6.428Z" transform="translate(-222.697)"/>
    </g>
  </g>
</svg>
