<svg xmlns="http://www.w3.org/2000/svg" viewBox="7822.8 1381.657 53.62 53.62">
  <defs>
    <style>
      .cls-1 {
        fill: #fff;
      }
    </style>
  </defs>
  <g id="off-button" transform="translate(7822.8 1384.327) rotate(-3)">
    <g id="Group_30" data-name="Group 30">
      <path id="Path_78" data-name="Path 78" class="cls-1" d="M25.51,0A25.51,25.51,0,1,0,51.02,25.51,25.539,25.539,0,0,0,25.51,0ZM23.191,11.6a2.319,2.319,0,0,1,4.638,0v9.939a2.319,2.319,0,0,1-4.638,0ZM25.51,41.744A14.743,14.743,0,0,1,14.5,17.194a2.319,2.319,0,1,1,3.463,3.086,10.1,10.1,0,1,0,15.092,0,2.319,2.319,0,1,1,3.462-3.086A14.743,14.743,0,0,1,25.51,41.744Z"/>
    </g>
  </g>
</svg>
