<svg xmlns="http://www.w3.org/2000/svg" viewBox="4980 1885.15 23.434 23.85">
  <g id="sort-by-attributes-interface-button-option" transform="translate(4975.543 1885.15)">
    <g id="Group_78" data-name="Group 78" transform="translate(4.457)">
      <path id="Path_131" data-name="Path 131" d="M251.785,149.588h5.962a.41.41,0,0,0,.426-.426v-2.555a.41.41,0,0,0-.426-.426h-5.962a.41.41,0,0,0-.426.426v2.555a.41.41,0,0,0,.426.426Z" transform="translate(-239.85 -139.367)"/>
      <path id="Path_132" data-name="Path 132" d="M251.788,3.407h3.407a.409.409,0,0,0,.425-.426V.426A.41.41,0,0,0,255.195,0h-3.407a.41.41,0,0,0-.426.426V2.981a.41.41,0,0,0,.426.426Z" transform="translate(-239.852 0)"/>
      <path id="Path_133" data-name="Path 133" d="M13.411,18.739H10.856V.426A.41.41,0,0,0,10.43,0H7.874a.41.41,0,0,0-.426.426V18.739H4.893a.4.4,0,0,0-.4.266.4.4,0,0,0,.093.466L8.846,23.73a.479.479,0,0,0,.306.119.445.445,0,0,0,.306-.119L13.7,19.484a.5.5,0,0,0,.133-.319.409.409,0,0,0-.426-.426Z" transform="translate(-4.457 0)"/>
      <path id="Path_134" data-name="Path 134" d="M263.167,438.656a.414.414,0,0,0-.306-.12H251.788a.41.41,0,0,0-.426.426v2.555a.41.41,0,0,0,.426.426h11.073a.41.41,0,0,0,.426-.426v-2.555A.414.414,0,0,0,263.167,438.656Z" transform="translate(-239.852 -418.094)"/>
      <path id="Path_135" data-name="Path 135" d="M251.785,295.771H260.3a.409.409,0,0,0,.426-.426V292.79a.409.409,0,0,0-.426-.426h-8.518a.41.41,0,0,0-.426.426v2.556a.41.41,0,0,0,.426.426Z" transform="translate(-239.85 -278.735)"/>
    </g>
  </g>
</svg>
