<svg xmlns="http://www.w3.org/2000/svg" viewBox="6636.373 1889.562 26.948 24.253">
  <defs>
    <style>
      .cls-1 {
        opacity: 0.54;
      }

      .cls-2 {
        fill: #1b427a;
      }
    </style>
  </defs>
  <g id="relogio1" class="cls-1" transform="translate(6636.373 1889.561)">
    <g id="Layer_1_65_" transform="translate(0 0)">
      <g id="Group_64" data-name="Group 64">
        <path id="Path_106" data-name="Path 106" class="cls-2" d="M26.894,12.015a.568.568,0,0,0-.514-.318H24.7A12.387,12.387,0,0,0,12.457,1.775,12.31,12.31,0,0,0,0,13.9,12.309,12.309,0,0,0,12.457,26.028a12.569,12.569,0,0,0,10.788-6.06,1.086,1.086,0,0,0-.414-1.507,1.147,1.147,0,0,0-1.546.4,10.287,10.287,0,0,1-8.828,4.96A10.071,10.071,0,0,1,2.265,13.9,10.071,10.071,0,0,1,12.457,3.981,10.146,10.146,0,0,1,22.385,11.7H20.72a.569.569,0,0,0-.514.318.538.538,0,0,0,.078.587l2.831,3.307a.576.576,0,0,0,.87,0L26.817,12.6A.539.539,0,0,0,26.894,12.015Z" transform="translate(0 -1.775)"/>
        <path id="Path_107" data-name="Path 107" class="cls-2" d="M20.251,6.713a1.118,1.118,0,0,0-1.132,1.1V14.5a1.912,1.912,0,0,0-.849,1.58,1.959,1.959,0,0,0,1.982,1.93,2,2,0,0,0,.836-.186l3.939,2.213a1.15,1.15,0,0,0,1.547-.4,1.086,1.086,0,0,0-.415-1.505l-3.943-2.217a1.91,1.91,0,0,0-.831-1.41V7.815A1.12,1.12,0,0,0,20.251,6.713Zm0,10.2a.827.827,0,1,1,.849-.826A.839.839,0,0,1,20.251,16.91Z" transform="translate(-7.795 -3.957)"/>
      </g>
    </g>
  </g>
</svg>
