<svg xmlns="http://www.w3.org/2000/svg" viewBox="2382 1863 30 27">
  <defs>
    <style>
      .cls-1 {
        fill: #1b427a;
      }
    </style>
  </defs>
  <g id="Group_64" data-name="Group 64" transform="translate(2382 1863)">
    <path id="Path_106" data-name="Path 106" class="cls-1" d="M29.94,13.174a.633.633,0,0,0-.572-.354H27.5A13.79,13.79,0,0,0,13.867,1.775,13.7,13.7,0,0,0,0,15.275a13.7,13.7,0,0,0,13.867,13.5,13.993,13.993,0,0,0,12.01-6.746,1.209,1.209,0,0,0-.461-1.677A1.277,1.277,0,0,0,23.7,20.8a11.452,11.452,0,0,1-9.828,5.522A11.212,11.212,0,0,1,2.521,15.277,11.212,11.212,0,0,1,13.867,4.231a11.3,11.3,0,0,1,11.053,8.591H23.067a.633.633,0,0,0-.572.354.6.6,0,0,0,.087.653l3.152,3.682a.642.642,0,0,0,.968,0l3.152-3.682A.6.6,0,0,0,29.94,13.174Z" transform="translate(0 -1.775)"/>
    <path id="Path_107" data-name="Path 107" class="cls-1" d="M20.476,6.713A1.244,1.244,0,0,0,19.215,7.94v7.447a2.129,2.129,0,0,0-.945,1.759,2.181,2.181,0,0,0,2.207,2.148,2.228,2.228,0,0,0,.931-.208l4.385,2.464a1.28,1.28,0,0,0,1.722-.449,1.209,1.209,0,0,0-.462-1.676l-4.389-2.468a2.127,2.127,0,0,0-.925-1.57V7.94A1.247,1.247,0,0,0,20.476,6.713Zm0,11.352a.92.92,0,1,1,.945-.92A.934.934,0,0,1,20.476,18.065Z" transform="translate(-6.609 -3.645)"/>
  </g>
</svg>
