<svg xmlns="http://www.w3.org/2000/svg" viewBox="2497 1861 30.912 31.936">
  <defs>
    <style>
      .cls-1, .cls-2 {
        fill: #1b427a;
      }

      .cls-1 {
        opacity: 0.54;
      }
    </style>
  </defs>
  <g id="double-angle-pointing-to-right" transform="translate(2492.43 1861)">
    <g id="Group_62" data-name="Group 62" transform="translate(4.57)">
      <path id="Path_104" data-name="Path 104" class="cls-1" d="M132.512,15.232,117.6.32a1,1,0,0,0-1.471,0l-1.6,1.6a1.007,1.007,0,0,0,0,1.472L127.1,15.968,114.528,28.545a1.007,1.007,0,0,0,0,1.472l1.6,1.6a1.006,1.006,0,0,0,1.471,0L132.512,16.7a1.008,1.008,0,0,0,0-1.473Z" transform="translate(-101.92)"/>
      <path id="Path_105" data-name="Path 105" class="cls-2" d="M23.194,15.968a1.011,1.011,0,0,0-.32-.736L7.962.32A1.006,1.006,0,0,0,6.49.32l-1.6,1.6a1.006,1.006,0,0,0,0,1.472L17.466,15.968,4.89,28.545a1.006,1.006,0,0,0,0,1.472l1.6,1.6a1.007,1.007,0,0,0,1.472,0L22.873,16.7A1.009,1.009,0,0,0,23.194,15.968Z" transform="translate(-4.57)"/>
    </g>
  </g>
</svg>
