<svg xmlns="http://www.w3.org/2000/svg" viewBox="6825 1073 28.735 28.735">
  <defs>
    <style>
      .cls-1 {
        fill: #1b427a;
      }

      .cls-2 {
        fill: #fff;
      }
    </style>
  </defs>
  <g id="Group_141" data-name="Group 141" transform="translate(-35 210)">
    <ellipse id="Ellipse_22" data-name="Ellipse 22" class="cls-1" cx="14.368" cy="14.368" rx="14.368" ry="14.368" transform="translate(6860 863)"/>
    <g id="workplace" transform="translate(6856.143 866.019)">
      <path id="Path_165" data-name="Path 165" class="cls-2" d="M229.774,344.571l-.5,3.21a.986.986,0,1,0,1.95.3l.543-3.511Z" transform="translate(-212.111 -330.125)"/>
      <path id="Path_166" data-name="Path 166" class="cls-2" d="M116.466,347.781l-.5-3.21h-2l.543,3.511a.987.987,0,0,0,1.95-.3Z" transform="translate(-101.318 -330.125)"/>
      <path id="Path_167" data-name="Path 167" class="cls-2" d="M163.137,0a1.7,1.7,0,1,0,1.7,1.7A1.7,1.7,0,0,0,163.137,0Z" transform="translate(-146.926 1)"/>
      <path id="Path_168" data-name="Path 168" class="cls-2" d="M54.717,122.626a.36.36,0,0,0-.36-.36H51.768a.488.488,0,0,0-.413-.748H50.222v-1.168h2.217a.406.406,0,0,0,.406-.406v-3.565a.406.406,0,0,0-.406-.406H46.414a.406.406,0,0,0-.406.406v3.565a.406.406,0,0,0,.406.406h2.217v1.168H47.5a.488.488,0,0,0-.413.748H38.038a.36.36,0,0,0-.36.36v1.3a.36.36,0,0,0,.36.36H38.6v6.407a.732.732,0,1,0,1.465,0v-6.407H52.324v6.407a.733.733,0,1,0,1.465,0v-6.407h.567a.36.36,0,0,0,.36-.36v-1.3Zm-5.29-3.793a.671.671,0,1,1,.671-.671A.671.671,0,0,1,49.426,118.833Z" transform="translate(-28 -110.448)"/>
      <path id="Path_169" data-name="Path 169" class="cls-2" d="M81.534,105.787v-3.565a.992.992,0,0,1,.851-.981H78.2a1.889,1.889,0,0,0-1.689,1.056c-.456.938-.971,2.109-1.192,2.66a.822.822,0,0,0,.432,1.058l2.877,1.268a.822.822,0,1,0,.663-1.5l-2.136-.941c.242-.557.551-1.236.835-1.82.014-.028,0-.043.03-.036a.067.067,0,0,1,.053.064l.085,1.55,1.385.61a1.447,1.447,0,0,1,.489,2.3h2.48v-.725A.992.992,0,0,1,81.534,105.787Z" transform="translate(-64.112 -96.291)"/>
    </g>
  </g>
</svg>
