<svg xmlns="http://www.w3.org/2000/svg" viewBox="6379 1145 28.735 28.735">
  <defs>
    <style>
      .cls-1 {
        fill: #1b427a;
      }

      .cls-2 {
        fill: #fff;
      }
    </style>
  </defs>
  <g id="Group_134" data-name="Group 134" transform="translate(-457 610)">
    <ellipse id="Ellipse_21" data-name="Ellipse 21" class="cls-1" cx="14.368" cy="14.368" rx="14.368" ry="14.368" transform="translate(6836 535)"/>
    <g id="traveler-with-a-suitcase" transform="translate(6840.455 539.15)">
      <g id="Group_133" data-name="Group 133" transform="translate(0 0)">
        <ellipse id="Ellipse_20" data-name="Ellipse 20" class="cls-2" cx="2.058" cy="2.058" rx="2.058" ry="2.058" transform="translate(8.102 0)"/>
        <path id="Path_170" data-name="Path 170" class="cls-2" d="M46.861,116.586c-1.839-.189-3.622-2.179-4.07-2.455a2.158,2.158,0,0,0-.912-.377,1.632,1.632,0,0,0-.45-.021,1.8,1.8,0,0,0-1.039.4,3.3,3.3,0,0,0-.363.333,15.679,15.679,0,0,0-3.125,4.592.8.8,0,0,0,.163.842l-.983,1.751-1.384-.778a.343.343,0,0,0-.468.131l-2.62,4.63a.344.344,0,0,0,.132.468l1.048.589a.787.787,0,1,0,1.306-.1l1.431-2.51,1-1.786,1.243-2.154a.8.8,0,0,0,.618-.494,11.219,11.219,0,0,1,1.432-2.463l.25,2.869a1.392,1.392,0,0,0,.377.843c-.644,1.167-2.375,4.358-3,5.442a1.017,1.017,0,1,0,1.761,1.016c.583-1.01,2.1-4.075,2.768-5.227a46.449,46.449,0,0,1,2.6,5.131,1.017,1.017,0,0,0,1.86-.822,45.534,45.534,0,0,0-2.92-5.688,1.409,1.409,0,0,0,.317-1.02L43.6,117.01a5.559,5.559,0,0,0,3.1,1.164.777.777,0,0,0,.084,0,.8.8,0,0,0,.08-1.593Zm-13.4,10.8a.287.287,0,1,1,.287-.287A.287.287,0,0,1,33.459,127.389Z" transform="translate(-31.565 -109.509)"/>
      </g>
    </g>
  </g>
</svg>
